<svg width="38" height="38" viewBox="0 0 38 38" fill="none" xmlns="http://www.w3.org/2000/svg">
<path d="M18.75 37.5H28.125V33.75H18.75C10.6125 33.75 3.75 26.8875 3.75 18.75C3.75 10.6125 10.6125 3.75 18.75 3.75C26.8875 3.75 33.75 10.6125 33.75 18.75V21.4313C33.75 22.9125 32.4188 24.375 30.9375 24.375C29.4562 24.375 28.125 22.9125 28.125 21.4313V18.75C28.125 13.575 23.925 9.375 18.75 9.375C13.575 9.375 9.375 13.575 9.375 18.75C9.375 23.925 13.575 28.125 18.75 28.125C21.3375 28.125 23.7 27.075 25.3875 25.3687C26.6063 27.0375 28.7062 28.125 30.9375 28.125C34.6312 28.125 37.5 25.125 37.5 21.4313V18.75C37.5 8.4 29.1 0 18.75 0C8.4 0 0 8.4 0 18.75C0 29.1 8.4 37.5 18.75 37.5ZM18.75 24.375C15.6375 24.375 13.125 21.8625 13.125 18.75C13.125 15.6375 15.6375 13.125 18.75 13.125C21.8625 13.125 24.375 15.6375 24.375 18.75C24.375 21.8625 21.8625 24.375 18.75 24.375Z" fill="#F5F5F5"/>
</svg>
