<?xml version="1.0" encoding="utf-8"?>
<!-- Generator: Adobe Illustrator 16.0.3, SVG Export Plug-In . SVG Version: 6.00 Build 0)  -->
<!DOCTYPE svg PUBLIC "-//W3C//DTD SVG 1.1//EN" "http://www.w3.org/Graphics/SVG/1.1/DTD/svg11.dtd">
<svg version="1.1" id="Calque_1" xmlns="http://www.w3.org/2000/svg" xmlns:xlink="http://www.w3.org/1999/xlink" x="0px" y="0px"
	 width="30px" height="30px" viewBox="0 0 30 30" enable-background="new 0 0 30 30" xml:space="preserve">
<path fill="#010202" d="M26.336,6.661l-13.651,13.65c-0.532,0.533-1.392,0.533-1.925,0l-3.862-3.862
	c-0.533-0.532-0.533-1.393,0-1.925c0.532-0.532,1.392-0.532,1.924,0l2.894,2.895L24.398,4.737c0.53-0.533,1.392-0.533,1.924,0
	C26.868,5.269,26.868,6.129,26.336,6.661z M13.655,25.923c-6.43,0-11.576-5.584-10.852-12.149c0.532-4.805,4.259-8.75,9.022-9.542
	c2.472-0.41,4.818,0.027,6.812,1.064c0.532,0.273,1.174,0.177,1.598-0.246c0.655-0.655,0.491-1.761-0.328-2.184
	c-2.007-1.024-4.272-1.584-6.689-1.516C6.201,1.57,0.373,7.275,0.018,14.278c-0.396,7.876,5.856,14.375,13.637,14.375
	c1.638,0,3.194-0.288,4.654-0.819c0.929-0.342,1.188-1.542,0.478-2.253c-0.368-0.368-0.928-0.505-1.418-0.313
	C16.208,25.69,14.952,25.923,13.655,25.923z M23.21,19.098h-2.73c-0.75,0-1.364,0.614-1.364,1.365s0.614,1.365,1.364,1.365h2.73
	v2.729c0,0.751,0.614,1.365,1.365,1.365s1.365-0.614,1.365-1.365v-2.729h2.729c0.751,0,1.365-0.614,1.365-1.365
	s-0.614-1.365-1.365-1.365H25.94v-2.73c0-0.751-0.614-1.365-1.365-1.365s-1.365,0.614-1.365,1.365V19.098z"/>
</svg>
