<svg width="28" height="28" viewBox="0 0 28 28" fill="none" xmlns="http://www.w3.org/2000/svg">
<path d="M24.7885 7.94326C23.9857 5.56028 22.3799 3.97163 19.9713 2.97872V0H17.9642V2.78014H17.1613C14.9534 2.78014 13.147 3.57447 11.5412 5.16312L10.7384 5.95745L7.92832 4.96454C7.32617 4.76596 6.72402 4.56738 5.92115 4.56738C4.71685 4.56738 3.51255 4.96454 2.50896 5.75887C1.30466 6.55319 0.702509 7.5461 0.301075 8.53901C-0.100358 9.92908 -0.100358 11.1206 0.301075 12.5106C0.903226 13.9007 1.50538 14.8936 2.50896 15.4894C1.70609 18.4681 2.30824 21.0496 4.51613 23.234C6.12186 24.8227 7.92832 25.617 10.1362 25.617C11.1398 25.617 11.7419 25.617 12.3441 25.4184C13.5484 27.0071 15.1541 28 17.1613 28C17.7634 28 18.5663 28 19.1685 27.8014C20.3728 27.4043 21.1756 26.6099 21.9785 25.617C22.7814 24.4255 23.1828 23.4326 23.1828 22.2411C23.1828 21.4468 23.1828 20.8511 22.9821 20.2553L21.9785 17.078L23.1828 16.2837C24.7885 14.695 25.5914 12.5106 25.3907 10.1277H28V7.94326H24.7885ZM5.319 12.5106C4.1147 11.9149 3.71326 11.1206 4.1147 9.92908C4.51613 8.73759 5.319 8.34042 6.5233 8.73759L12.9462 11.1206C9.73477 12.7092 7.32617 13.1064 5.319 12.5106ZM17.9642 23.6312C16.7599 24.0284 15.957 23.6312 15.3548 22.4397C14.7527 20.4539 15.1541 18.0709 16.7599 14.8936L19.1685 21.0496C19.5699 22.4397 19.1685 23.234 17.9642 23.6312ZM20.3728 13.1064L19.1685 9.92908V9.7305L18.5663 9.13475H18.3656L15.1541 7.94326C15.957 7.34752 16.7599 6.95035 17.7634 6.95035C18.767 6.95035 19.7706 7.34752 20.5735 8.14184C21.3763 8.93617 21.7778 9.7305 21.7778 10.7234C21.3763 11.3191 20.9749 12.3121 20.3728 13.1064Z" fill="white"/>
</svg>
