<svg width="29" height="29" viewBox="0 0 29 29" fill="none" xmlns="http://www.w3.org/2000/svg">
<path d="M29 17.7955C29 15.7391 27.6423 14.0123 25.7705 13.4191C26.1395 12.76 26.3636 12.0086 26.3636 11.2045C26.3636 9.14818 25.0059 7.42136 23.1341 6.82818C23.5032 6.16909 23.7273 5.41773 23.7273 4.61364C23.7273 2.06955 21.6577 0 19.1136 0H9.88636C7.34227 0 5.27273 2.06955 5.27273 4.61364C5.27273 5.41773 5.49682 6.16909 5.86591 6.82818C4.00727 7.42136 2.63636 9.14818 2.63636 11.2045C2.63636 12.0086 2.86045 12.76 3.22955 13.4191C1.37091 14.0123 0 15.7391 0 17.7955C0 19.4564 0.883182 20.88 2.20136 21.6973C1.64773 22.4486 1.31818 23.3845 1.31818 24.3864C1.31818 26.9305 3.38773 29 5.93182 29H23.0682C25.6123 29 27.6818 26.9305 27.6818 24.3864C27.6818 23.3845 27.3523 22.4486 26.7986 21.6973C28.1168 20.88 29 19.4564 29 17.7955ZM9.88636 2.63636H19.1136C20.2077 2.63636 21.0909 3.51955 21.0909 4.61364C21.0909 5.70773 20.2077 6.59091 19.1136 6.59091H9.88636C8.79227 6.59091 7.90909 5.70773 7.90909 4.61364C7.90909 3.51955 8.79227 2.63636 9.88636 2.63636ZM7.25 9.22727H21.75C22.8441 9.22727 23.7273 10.1105 23.7273 11.2045C23.7273 12.2986 22.8441 13.1818 21.75 13.1818H7.25C6.15591 13.1818 5.27273 12.2986 5.27273 11.2045C5.27273 10.1105 6.15591 9.22727 7.25 9.22727ZM3.95455 24.3864C3.95455 23.2923 4.83773 22.4091 5.93182 22.4091H10.5455V26.3636H5.93182C4.83773 26.3636 3.95455 25.4805 3.95455 24.3864ZM23.0682 26.3636H18.4545V22.4091H23.0682C24.1623 22.4091 25.0455 23.2923 25.0455 24.3864C25.0455 25.4805 24.1623 26.3636 23.0682 26.3636ZM24.3864 19.7727H18.2173C17.6636 18.2436 16.2136 17.1364 14.5 17.1364C12.7864 17.1364 11.3364 18.2436 10.7827 19.7727H4.61364C3.51955 19.7727 2.63636 18.8895 2.63636 17.7955C2.63636 16.7014 3.51955 15.8182 4.61364 15.8182H24.3864C25.4805 15.8182 26.3636 16.7014 26.3636 17.7955C26.3636 18.8895 25.4805 19.7727 24.3864 19.7727Z" fill="white"/>
</svg>
