<svg width="82" height="82" viewBox="0 0 82 82" fill="none" xmlns="http://www.w3.org/2000/svg">
<path d="M67.7232 -0.000244141H14.2768C6.39193 -0.000244141 0 6.39169 0 14.2765V67.723C0 75.6078 6.39193 81.9998 14.2768 81.9998H67.7232C75.6081 81.9998 82 75.6078 82 67.723V14.2765C82 6.39169 75.6081 -0.000244141 67.7232 -0.000244141Z" fill="#F3C10E"/>
<path d="M58.1902 14.33C54.9031 14.0707 40.9695 14.33 40.9695 14.33C39.9476 14.33 26.9749 14.0859 23.8099 14.33C20.5153 14.5816 8.61035 28.5152 8.61035 39.4059V57.7781C8.61035 63.5742 21.7813 67.784 41.0306 67.784C60.2493 67.784 73.3897 63.559 73.3897 57.7781V39.4059C73.3897 28.5152 61.4848 14.5816 58.1902 14.33ZM31.4059 49.2974C31.3069 50.0732 30.9047 50.7783 30.2874 51.2585C29.67 51.7387 28.8876 51.9549 28.1113 51.8599C25.198 51.6006 24.8166 49.3279 24.8166 49.3279V27.7602C24.8166 27.7602 24.9463 25.1062 28.1799 25.1062C31.4136 25.1062 31.4059 27.7602 31.4059 27.7602V49.2974ZM57.1835 49.2974C57.1835 49.2974 56.8021 51.5854 53.8888 51.8294C53.1168 51.9269 52.3374 51.7156 51.7204 51.2414C51.1034 50.7672 50.6986 50.0686 50.5942 49.2974V27.7526C50.5942 27.7526 50.5942 25.0909 53.8202 25.0909C57.0462 25.0909 57.1987 27.7526 57.1987 27.7526L57.1835 49.2974Z" fill="#222222"/>
<path d="M31.4059 27.7601C31.4059 27.7601 31.4059 25.1061 28.1799 25.1061C24.9539 25.1061 24.8167 27.7601 24.8167 27.7601V49.2973C24.8167 49.2973 25.198 51.5852 28.1113 51.8293C28.883 51.9248 29.6613 51.7127 30.2778 51.2389C30.8943 50.765 31.2996 50.0676 31.4059 49.2973V27.7601Z" fill="#F2F2F0"/>
<path d="M50.594 27.7526C50.594 27.7526 50.594 25.0909 53.82 25.0909C57.046 25.0909 57.1985 27.7526 57.1985 27.7526V49.2822C57.1985 49.2822 56.8172 51.5701 53.9039 51.8142C53.1318 51.9117 52.3525 51.7004 51.7355 51.2262C51.1185 50.752 50.7137 50.0533 50.6093 49.2822L50.594 27.7526Z" fill="#F2F2F0"/>
</svg>
