<?xml version="1.0" encoding="utf-8"?>
<!-- Generator: Adobe Illustrator 16.0.3, SVG Export Plug-In . SVG Version: 6.00 Build 0)  -->
<!DOCTYPE svg PUBLIC "-//W3C//DTD SVG 1.1//EN" "http://www.w3.org/Graphics/SVG/1.1/DTD/svg11.dtd">
<svg version="1.1" id="Calque_1" xmlns="http://www.w3.org/2000/svg" xmlns:xlink="http://www.w3.org/1999/xlink" x="0px" y="0px"
	 width="500px" height="500px" viewBox="0 0 500 500" enable-background="new 0 0 500 500" xml:space="preserve">
<polygon fill="#F3C10E" stroke="#222222" stroke-width="24" stroke-linecap="round" stroke-linejoin="round" stroke-miterlimit="10" points="
	450.241,364.543 250.734,479.729 51.227,364.543 51.227,134.173 250.734,18.989 450.241,134.173 "/>
<path fill="#222222" d="M129.251,356.458V200.561c-3.15-0.422-6.182-2.536-9.109-6.337c-2.927-3.799-4.389-7.921-4.389-12.355
	v-40.242c0-4.858,2.023-9.238,6.076-13.149c4.048-3.905,8.773-5.861,14.171-5.861h229.47c5.172,0,9.846,1.956,14.005,5.861
	c4.158,3.911,6.242,8.291,6.242,13.149v40.242c0,4.435-1.463,8.556-4.389,12.355c-2.926,3.801-5.96,5.915-9.108,6.337v155.897
	c0,4.853-2.083,9.345-6.245,13.466c-4.158,4.119-8.829,6.176-14.005,6.176H149.498c-5.398,0-10.124-2.057-14.17-6.176
	C131.276,365.803,129.251,361.311,129.251,356.458z M149.498,200.881V357.09H351.97V200.881H149.498z M365.47,181.869v-40.242H136
	v40.242H365.47z M210.24,267.418h80.987v-19.007H210.24V267.418L210.24,267.418z M149.498,357.088V200.881V357.088z"/>
</svg>
