<?xml version="1.0" encoding="utf-8"?>
<!-- Generator: Adobe Illustrator 16.0.3, SVG Export Plug-In . SVG Version: 6.00 Build 0)  -->
<!DOCTYPE svg PUBLIC "-//W3C//DTD SVG 1.1//EN" "http://www.w3.org/Graphics/SVG/1.1/DTD/svg11.dtd">
<svg version="1.1" id="Calque_1" xmlns="http://www.w3.org/2000/svg" xmlns:xlink="http://www.w3.org/1999/xlink" x="0px" y="0px"
	 width="500px" height="500px" viewBox="0 0 500 500" enable-background="new 0 0 500 500" xml:space="preserve">
<polygon fill="none" stroke="#000000" stroke-width="6" stroke-miterlimit="10" points="464.234,373.327 250,497.015 
	35.767,373.327 35.767,125.953 250,2.266 464.234,125.953 "/>
<path fill="#010202" d="M154.263,333.129c15.59-10.886,31.048-19.234,46.385-25.048c15.333-5.811,31.786-8.718,49.353-8.718
	c17.567,0,34.075,2.907,49.536,8.718c15.457,5.813,30.983,14.162,46.571,25.048c10.877-13.355,18.615-26.846,23.191-40.448
	c4.573-13.603,6.861-27.952,6.861-43.042c0-35.871-12.058-65.863-36.177-89.983c-24.118-24.12-54.108-36.178-89.983-36.178
	c-35.874,0-65.863,12.059-89.983,36.178s-36.179,54.112-36.179,89.983c0,15.089,2.349,29.439,7.052,43.042
	C135.595,306.283,143.378,319.773,154.263,333.129z M250,260.772c-14.35,0-26.409-4.887-36.178-14.659
	c-9.769-9.77-14.655-21.828-14.655-36.18c0-14.345,4.886-26.405,14.655-36.178c9.769-9.769,21.829-14.657,36.178-14.657
	c14.349,0,26.409,4.888,36.18,14.657c9.768,9.773,14.652,21.833,14.652,36.178c0,14.352-4.885,26.41-14.652,36.18
	C276.409,255.886,264.35,260.772,250,260.772z M250,398.066c-20.287,0-39.454-3.9-57.514-11.693
	c-18.061-7.79-33.831-18.43-47.312-31.908c-13.479-13.479-24.119-29.25-31.909-47.312c-7.792-18.062-11.691-37.227-11.691-57.514
	c0-20.532,3.898-39.765,11.691-57.7c7.79-17.933,18.429-33.645,31.909-47.125c13.48-13.48,29.251-24.119,47.312-31.909
	c18.06-7.795,37.228-11.691,57.514-11.691c20.532,0,39.767,3.896,57.702,11.691c17.931,7.791,33.643,18.429,47.122,31.909
	c13.482,13.481,24.12,29.193,31.91,47.125c7.791,17.935,11.691,37.167,11.691,57.7c0,20.288-3.9,39.453-11.691,57.514
	c-7.79,18.062-18.428,33.832-31.91,47.312c-13.479,13.479-29.191,24.118-47.122,31.908C289.768,394.166,270.532,398.066,250,398.066
	z M250,375.801c13.608,0,26.904-1.979,39.889-5.934c12.986-3.968,25.786-10.888,38.404-20.779
	c-12.618-8.909-25.475-15.712-38.594-20.409c-13.103-4.705-26.343-7.053-39.7-7.053s-26.597,2.348-39.702,7.053
	c-13.116,4.697-25.973,11.5-38.591,20.409c12.619,9.892,25.417,16.812,38.404,20.779C223.098,373.822,236.391,375.801,250,375.801z
	 M250,238.508c8.407,0,15.276-2.659,20.597-7.979c5.319-5.315,7.97-12.182,7.97-20.594c0-8.41-2.65-15.273-7.97-20.593
	c-5.321-5.32-12.19-7.979-20.597-7.979s-15.277,2.66-20.597,7.979s-7.973,12.183-7.973,20.593c0,8.413,2.653,15.279,7.973,20.594
	C234.724,235.849,241.594,238.508,250,238.508z"/>
</svg>
