<!-- <?xml version="1.0" encoding="utf-8"?> -->
<svg version="1.1" id="Calque_1" xmlns="http://www.w3.org/2000/svg" xmlns:xlink="http://www.w3.org/1999/xlink" x="0px" y="0px"
	 width="500px" height="500px" viewBox="0 0 500 500" enable-background="new 0 0 500 500" xml:space="preserve">
<g>
	<polygon fill="none" stroke="#000000" stroke-width="6" stroke-miterlimit="10" points="368.335,204.96 250,273.28 131.666,204.96 
		131.666,68.32 250,0 368.335,68.32 	"/>
	<polygon fill="none" stroke="#000000" stroke-width="6" stroke-miterlimit="10" points="239.069,431.679 120.734,499.999 
		2.4,431.679 2.4,295.039 120.734,226.719 239.069,295.039 	"/>
	<polygon fill="none" stroke="#000000" stroke-width="6" stroke-miterlimit="10" points="497.601,431.68 379.265,500 
		260.932,431.68 260.932,295.041 379.265,226.719 497.601,295.041 	"/>
	<path fill="#010202" d="M197.118,182.756c8.611-6.013,17.15-10.624,25.621-13.835c8.47-3.21,17.557-4.816,27.261-4.816
		c9.703,0,18.821,1.605,27.361,4.816c8.538,3.211,17.114,7.822,25.725,13.835c6.008-7.377,10.282-14.828,12.81-22.341
		c2.526-7.514,3.79-15.439,3.79-23.775c0-19.813-6.66-36.38-19.982-49.703S269.815,66.953,250,66.953s-36.38,6.661-49.703,19.983
		s-19.984,29.89-19.984,49.703c0,8.335,1.297,16.261,3.895,23.775C186.807,167.928,191.106,175.378,197.118,182.756z M250,142.789
		c-7.926,0-14.587-2.699-19.983-8.097c-5.396-5.396-8.095-12.057-8.095-19.984c0-7.923,2.699-14.585,8.095-19.983
		c5.396-5.396,12.057-8.096,19.983-8.096c7.926,0,14.587,2.7,19.984,8.096c5.396,5.398,8.094,12.06,8.094,19.983
		c0,7.927-2.698,14.588-8.094,19.984C264.587,140.09,257.926,142.789,250,142.789z M250,218.625
		c-11.206,0-21.793-2.154-31.769-6.458c-9.976-4.303-18.687-10.18-26.133-17.625c-7.445-7.446-13.322-16.156-17.625-26.132
		c-4.304-9.977-6.458-20.563-6.458-31.769c0-11.341,2.153-21.965,6.458-31.871c4.303-9.905,10.18-18.584,17.625-26.03
		c7.446-7.446,16.157-13.322,26.133-17.625c9.976-4.306,20.563-6.458,31.769-6.458c11.341,0,21.966,2.152,31.872,6.458
		c9.904,4.303,18.583,10.18,26.028,17.625c7.447,7.446,13.323,16.125,17.626,26.03c4.304,9.906,6.458,20.53,6.458,31.871
		c0,11.206-2.154,21.792-6.458,31.769c-4.303,9.976-10.179,18.687-17.626,26.132c-7.445,7.446-16.124,13.322-26.028,17.625
		C271.966,216.47,261.341,218.625,250,218.625z M250,206.327c7.517,0,14.86-1.093,22.033-3.278
		c7.173-2.19,14.243-6.013,21.213-11.477c-6.97-4.92-14.071-8.679-21.317-11.273c-7.237-2.598-14.551-3.895-21.929-3.895
		s-14.691,1.297-21.93,3.895c-7.245,2.595-14.346,6.353-21.316,11.273c6.97,5.464,14.039,9.287,21.213,11.477
		C235.14,205.233,242.482,206.327,250,206.327z M250,130.491c4.644,0,8.438-1.469,11.377-4.408
		c2.938-2.936,4.402-6.729,4.402-11.375c0-4.645-1.464-8.436-4.402-11.375c-2.939-2.938-6.733-4.408-11.377-4.408
		s-8.438,1.469-11.377,4.408s-4.404,6.729-4.404,11.375c0,4.647,1.465,8.439,4.404,11.375
		C241.562,129.022,245.356,130.491,250,130.491z"/>
	<path fill="#010202" d="M46.949,432.637V331.794c-1.914-0.273-3.755-1.641-5.533-4.099c-1.777-2.458-2.666-5.124-2.666-7.992
		v-26.031c0-3.143,1.229-5.976,3.69-8.506c2.458-2.525,5.328-3.791,8.607-3.791h139.374c3.142,0,5.98,1.266,8.506,3.791
		c2.526,2.53,3.791,5.363,3.791,8.506v26.031c0,2.868-0.888,5.534-2.666,7.992c-1.777,2.458-3.619,3.825-5.532,4.099v100.843
		c0,3.139-1.266,6.045-3.792,8.711c-2.525,2.663-5.364,3.994-8.506,3.994H59.246c-3.279,0-6.149-1.331-8.606-3.994
		C48.178,438.682,46.949,435.775,46.949,432.637z M59.246,332.001v101.043h122.977V332.001H59.246z M190.421,319.703v-26.031H51.048
		v26.031H190.421z M96.139,375.041h49.19v-12.295h-49.19V375.041z M59.246,433.044V332.001V433.044z"/>
	<path fill="#010202" d="M308.044,353.483l-10.762-10.758c10.588-10.818,23.001-19.214,37.234-25.193
		c14.231-5.979,29.151-8.967,44.749-8.967c2.732,0,5.81,0.084,9.226,0.254c3.415,0.174,6.944,0.486,10.587,0.94l-7.172,14.688
		c-2.052-0.227-4.101-0.369-6.148-0.427c-2.052-0.057-4.217-0.084-6.492-0.084c-13.55,0-26.388,2.616-38.517,7.854
		C328.622,337.031,317.722,344.261,308.044,353.483z M329.049,373.636l-10.758-10.758c7.857-7.63,17.281-13.434,28.266-17.423
		c10.989-3.984,23.485-5.519,37.493-4.611l-6.661,13.838c-8.771-0.228-17.564,1.421-26.392,4.951
		C342.174,363.162,334.858,367.833,329.049,373.636z M373.118,417.19c-3.076-1.247-5.324-3.583-6.748-6.999
		c-1.422-3.416-1.336-6.777,0.257-10.081l40.48-83.692c0.341-0.793,0.938-1.365,1.792-1.708c0.854-0.34,1.738-0.393,2.649-0.167
		c0.91,0.228,1.651,0.741,2.219,1.535c0.569,0.801,0.738,1.655,0.513,2.563l-23.571,91.378c-0.907,3.643-3.243,6.064-7.003,7.259
		C379.95,418.472,376.416,418.444,373.118,417.19z M429.482,373.636c-1.825-1.934-4.357-4.036-7.603-6.317
		c-3.243-2.276-6.005-3.931-8.284-4.951l3.587-14.69c3.985,1.367,8.144,3.559,12.47,6.577c4.326,3.017,7.855,5.892,10.589,8.624
		L429.482,373.636z M450.488,353.483c-4.44-4.326-9.28-8.256-14.518-11.785c-5.239-3.53-10.248-6.375-15.028-8.539l3.755-15.373
		c7.404,3.076,14.008,6.691,19.814,10.849c5.807,4.156,11.389,8.854,16.739,14.091L450.488,353.483z"/>
</g>
</svg>
