<?xml version="1.0" encoding="utf-8"?>
<!-- Generator: Adobe Illustrator 16.0.3, SVG Export Plug-In . SVG Version: 6.00 Build 0)  -->
<!DOCTYPE svg PUBLIC "-//W3C//DTD SVG 1.1//EN" "http://www.w3.org/Graphics/SVG/1.1/DTD/svg11.dtd">
<svg version="1.1" id="Calque_1" xmlns="http://www.w3.org/2000/svg" xmlns:xlink="http://www.w3.org/1999/xlink" x="0px" y="0px"
	 width="500px" height="500px" viewBox="0 0 500 500" enable-background="new 0 0 500 500" xml:space="preserve">
<polygon fill="none" stroke="#000000" stroke-width="6" stroke-miterlimit="10" points="467.241,374.358 250.734,499.358 
	34.227,374.358 34.227,124.359 250.734,-0.641 467.241,124.359 "/>
<path fill="#010202" d="M115.734,376.111V191.607c-3.501-0.5-6.87-3.002-10.123-7.499c-3.252-4.497-4.877-9.375-4.877-14.623
	v-47.627c0-5.75,2.248-10.933,6.752-15.563c4.498-4.621,9.749-6.936,15.748-6.936h255.002c5.746,0,10.942,2.315,15.563,6.936
	c4.621,4.629,6.937,9.813,6.937,15.563v47.627c0,5.248-1.626,10.125-4.878,14.623s-6.622,6.999-10.122,7.499v184.504
	c0,5.742-2.315,11.06-6.938,15.938c-4.621,4.873-9.813,7.308-15.563,7.308H138.234c-5.999,0-11.25-2.435-15.747-7.308
	C117.984,387.171,115.734,381.854,115.734,376.111z M138.234,191.986v184.871h225.001V191.986H138.234z M378.236,169.485v-47.627
	H123.234v47.627H378.236z M205.734,270.732h89.999v-22.495h-89.999V270.732z M138.234,376.856V191.986V376.856z"/>
</svg>
