<?xml version="1.0" encoding="utf-8"?>
<!-- Generator: Adobe Illustrator 16.0.3, SVG Export Plug-In . SVG Version: 6.00 Build 0)  -->
<!DOCTYPE svg PUBLIC "-//W3C//DTD SVG 1.1//EN" "http://www.w3.org/Graphics/SVG/1.1/DTD/svg11.dtd">
<svg version="1.1" id="Calque_1" xmlns="http://www.w3.org/2000/svg" xmlns:xlink="http://www.w3.org/1999/xlink" x="0px" y="0px"
	 width="500px" height="500px" viewBox="0 0 500 500" enable-background="new 0 0 500 500" xml:space="preserve">
<polygon fill="none" stroke="#000000" stroke-width="6" stroke-miterlimit="10" points="466.773,374.359 250.264,499.359 
	33.759,374.359 33.759,124.362 250.264,-0.641 466.773,124.362 "/>
<path fill="#010202" d="M119.957,231.29l-19.69-19.683c19.372-19.794,42.083-35.154,68.125-46.095
	c26.038-10.938,53.336-16.406,81.874-16.406c5,0,10.629,0.154,16.879,0.465c6.248,0.318,12.705,0.89,19.37,1.72l-13.122,26.873
	c-3.754-0.415-7.502-0.676-11.249-0.781c-3.754-0.104-7.715-0.153-11.878-0.153c-24.791,0-48.279,4.787-70.471,14.369
	C157.607,201.188,137.663,214.416,119.957,231.29z M158.388,268.161l-19.683-19.683c14.376-13.96,31.618-24.579,51.715-31.877
	c20.106-7.29,42.969-10.097,68.598-8.437l-12.188,25.318c-16.047-0.417-32.136,2.6-48.287,9.059
	C182.401,248.998,169.017,257.544,158.388,268.161z M239.018,347.85c-5.628-2.281-9.741-6.556-12.346-12.806
	c-2.602-6.25-2.444-12.399,0.47-18.444l74.064-153.125c0.624-1.451,1.717-2.498,3.278-3.125c1.563-0.622,3.181-0.718,4.848-0.305
	c1.665,0.416,3.021,1.356,4.06,2.809c1.042,1.465,1.351,3.028,0.938,4.688l-43.127,167.187c-1.66,6.665-5.934,11.096-12.813,13.281
	C251.518,350.193,245.052,350.144,239.018,347.85z M342.143,268.161c-3.339-3.538-7.972-7.385-13.909-11.559
	c-5.934-4.165-10.987-7.191-15.157-9.059l6.563-26.878c7.292,2.501,14.899,6.511,22.815,12.034
	c7.915,5.519,14.372,10.779,19.373,15.779L342.143,268.161z M380.575,231.29c-8.124-7.916-16.979-15.105-26.562-21.563
	c-9.586-6.459-18.75-11.664-27.496-15.623l6.87-28.127c13.547,5.628,25.629,12.243,36.253,19.849
	c10.624,7.604,20.837,16.199,30.627,25.781L380.575,231.29z"/>
</svg>
