<svg width="97" height="98" viewBox="0 0 97 98" fill="none" xmlns="http://www.w3.org/2000/svg">
<path d="M27.1696 29.9878L20.4153 24.5424" stroke="black" stroke-width="6.47" stroke-miterlimit="10"/>
<path d="M23.5647 23.1152C23.9427 23.9495 23.9735 24.9001 23.6502 25.7577C23.327 26.6153 22.6761 27.3097 21.8408 27.6882C17.6038 29.4361 14.8858 23.4285 18.9864 21.3893C19.4005 21.201 19.8477 21.0964 20.3023 21.0813C20.7568 21.0662 21.2098 21.141 21.6352 21.3013C22.0607 21.4617 22.4501 21.7045 22.7812 22.0158C23.1123 22.3271 23.3786 22.7007 23.5647 23.1152Z" fill="black"/>
<path d="M37.4282 62.8068L37.9968 64.4517C37.9968 64.4517 33.1258 71.5588 24.9052 68.0756C20.282 66.114 10.9129 57.0244 9.68708 50.5746L21.4441 59.7651L37.4282 62.8068Z" fill="#F2F2F0" stroke="#222222" stroke-width="0.65" stroke-miterlimit="10"/>
<path d="M32.332 47.1239C33.3619 51.5128 33.5491 51.5163 34.3536 53.9547L17.3288 47.9238L11.087 45.7158C15.0439 41.848 24.5259 43.1218 32.332 47.1239Z" fill="#F2F2F0" stroke="#222222" stroke-width="0.65" stroke-miterlimit="10"/>
<path d="M34.3553 53.9584L35.9093 58.4409L20.8517 53.7963L17.3288 47.9239L34.3553 53.9584Z" fill="#F2F2F0" stroke="#222222" stroke-width="0.65" stroke-miterlimit="10"/>
<path d="M35.9093 58.4409L37.4428 62.8002L21.4771 59.7501L9.68708 50.5746C9.2938 48.634 9.74374 46.9645 11.0836 45.7085L17.3308 47.9185L20.837 53.8029L35.9093 58.4409Z" fill="#F2F2F0" stroke="#222222" stroke-width="0.65" stroke-miterlimit="10"/>
<path d="M48.3028 20.4023L48.6575 11.7353" stroke="black" stroke-width="6.47" stroke-miterlimit="10"/>
<path d="M45.5081 13.1625C45.8863 13.9972 46.5808 14.6474 47.4389 14.9703C48.297 15.2932 49.2486 15.2625 50.0847 14.8848C54.1906 12.8476 51.4689 6.84161 47.2319 8.58951C46.3974 8.96886 45.7472 9.66335 45.4241 10.5207C45.1009 11.3779 45.1311 12.328 45.5081 13.1625Z" fill="black"/>
<path d="M32.2174 46.7345C33.3667 52.089 36.4244 59.6068 37.9215 64.2563C37.9215 64.2563 33.0469 71.3651 24.8299 67.8803C20.3579 66.1547 4.66939 51.8773 11.005 45.5058C14.9737 41.615 24.4153 42.7217 32.2174 46.7345Z" stroke="black" stroke-width="2.59" stroke-miterlimit="10"/>
<path d="M66.4602 50.3481L67.3185 51.8617C67.3185 51.8617 75.8737 52.8846 78.6742 44.4071C80.2618 39.631 79.5859 26.5931 75.5476 21.4266L74.7041 36.3095L66.4602 50.3481Z" fill="#F2F2F0" stroke="#222222" stroke-width="0.65" stroke-miterlimit="10"/>
<path d="M58.024 36.1787C60.6451 39.8466 60.5297 39.9916 61.8328 42.2041L68.5219 25.427L70.975 19.2743C65.4544 19.7014 60.1648 27.6692 58.024 36.1787Z" fill="#F2F2F0" stroke="#222222" stroke-width="0.65" stroke-miterlimit="10"/>
<path d="M61.8328 42.2041L64.1751 46.3293L70.6096 31.9453L68.5166 25.425L61.8328 42.2041Z" fill="#F2F2F0" stroke="#222222" stroke-width="0.65" stroke-miterlimit="10"/>
<path d="M64.1751 46.3294L66.4602 50.3481L74.7041 36.3095L75.5476 21.4266C74.3477 19.8515 72.7958 19.0893 70.968 19.2687L68.5219 25.427L70.5966 31.9557L64.1751 46.3294Z" fill="#F2F2F0" stroke="#222222" stroke-width="0.65" stroke-miterlimit="10"/>
<path d="M57.7961 35.8318C61.0609 40.2276 64.6978 47.483 67.2105 51.6723C67.2105 51.6723 75.7657 52.6952 78.5625 44.2194C80.2133 39.7192 79.8208 18.5102 70.8568 19.0719C65.3292 19.4933 59.9332 27.3239 57.7961 35.8318Z" stroke="black" stroke-width="2.59" stroke-miterlimit="10"/>
<path d="M37.8806 25.5578C37.8806 25.5578 42.1868 23.4651 44.0317 23.4501L44.303 21.4158C46.7993 19.5519 50.5973 20.3557 52.4702 22.6455L52.0746 24.4933C52.0746 24.4933 58.196 26.65 60.5266 29.4916C62.8572 32.3332 64.8659 36.7951 64.8659 36.7951L74.2142 57.4241C74.2142 57.4241 75.8526 64.5212 72.6322 69.6047C69.4118 74.6881 65.6273 76.7033 65.6273 76.7033L63.6679 82.385L58.0926 80.1265C58.0926 80.1265 54.1134 81.634 48.139 80.7084C42.1646 79.7829 37.9287 73.8584 37.9287 73.8584L28.5721 53.2111C28.5721 53.2111 26.564 48.7799 25.9413 45.1334C25.3186 41.487 27.7551 35.4831 27.7551 35.4831L26.1148 34.5843C25.6255 31.6322 27.5583 28.2711 30.5766 27.6273L32.2867 28.7681C33.5126 27.3871 37.923 25.5342 37.923 25.5342" fill="#F3C10E"/>
<path d="M37.8806 25.5578C37.8806 25.5578 42.1868 23.4651 44.0317 23.4501L44.303 21.4158C46.7993 19.5519 50.5973 20.3557 52.4702 22.6455L52.0746 24.4933C52.0746 24.4933 58.196 26.65 60.5266 29.4916C62.8572 32.3332 64.8659 36.7951 64.8659 36.7951L74.2142 57.4241C74.2142 57.4241 75.8526 64.5212 72.6322 69.6047C69.4118 74.6881 65.6273 76.7033 65.6273 76.7033L63.6679 82.385L58.0926 80.1265C58.0926 80.1265 54.1134 81.634 48.139 80.7084C42.1646 79.7829 37.9287 73.8584 37.9287 73.8584L28.5721 53.2111C28.5721 53.2111 26.564 48.7799 25.9413 45.1334C25.3186 41.487 27.7551 35.4831 27.7551 35.4831L26.1148 34.5843C25.6255 31.6322 27.5583 28.2711 30.5766 27.6273L32.2867 28.7681C33.5126 27.3871 37.923 25.5342 37.923 25.5342" stroke="#1D1D1B" stroke-width="2.59" stroke-miterlimit="10"/>
<path d="M69.5002 47.09L72.9007 54.5938C71.6531 62.9679 62.2031 67.7623 62.2031 67.7623L60.1754 74.7463L53.6015 71.669C53.6015 71.669 43.7612 75.6118 36.6458 71.0275L33.247 63.5274C38.1268 67.9374 49.7746 63.2241 49.7746 63.2241L56.3758 66.2934L58.3925 59.3144C58.3925 59.3144 69.6154 53.6635 69.5002 47.09Z" fill="#222222"/>
<path d="M48.2374 27.8257C46.7194 28.3767 40.4977 31.333 40.4977 31.333C40.0395 31.5407 34.1638 34.0709 32.7984 34.822C31.3833 35.6001 28.8523 44.2822 31.0678 49.1712L34.8018 57.411C35.9801 60.0112 42.7539 59.2193 51.4028 55.2999C60.0371 51.3872 65.0802 46.8153 63.9053 44.2225L60.1696 35.9789C57.9501 31.1006 49.7664 27.2697 48.2374 27.8257ZM43.314 48.9673C43.8227 50.7629 41.2406 51.5401 40.3552 50.3081L35.9773 40.6473C35.9773 40.6473 35.4913 39.4285 36.9432 38.7705C38.3951 38.1126 38.9507 39.2998 38.9507 39.2998L43.314 48.9673ZM54.8923 43.7204C55.233 45.2037 52.9413 46.6219 51.9336 45.0612L47.554 35.3968C47.554 35.3968 47.013 34.2029 48.4795 33.5383C49.9461 32.8737 50.5274 34.0493 50.5274 34.0493L54.8923 43.7204Z" fill="#222222"/>
<path d="M38.9361 39.3065C38.1233 37.6884 35.358 39.0563 35.9773 40.6473L40.3552 50.3081C41.2475 51.5458 43.8231 50.7539 43.314 48.9673L38.9361 39.3065Z" fill="#F2F2F0"/>
<path d="M47.554 35.3967C46.8695 33.7205 49.7248 32.5414 50.5127 34.056L54.8906 43.7168C55.2314 45.2 52.9396 46.6182 51.9319 45.0575L47.554 35.3967Z" fill="#F2F2F0"/>
</svg>
