<svg width="42" height="45" viewBox="0 0 42 45" fill="none" xmlns="http://www.w3.org/2000/svg">
<path d="M25.0015 44.0934L16.8193 35.9112L22.2741 30.4564L18.6194 26.8016C13.7646 28.5472 8.25523 27.3471 4.54595 23.6378C-0.717957 18.3739 -0.717958 9.80985 4.54595 4.54594C9.80985 -0.717963 18.3739 -0.717963 23.6378 4.54594C27.3471 8.25522 28.5335 13.751 26.8016 18.6194L41.366 33.1838L33.1838 41.366L30.4564 38.6386L25.0015 44.0934ZM22.2741 35.9112L25.0015 38.6386L30.4564 33.1838L33.1838 35.9112L35.9112 33.1838L22.1923 19.4649L22.7923 18.2375C24.5515 14.5692 23.7878 10.1508 20.9104 7.27335C17.1466 3.50953 11.0372 3.50953 7.27336 7.27335C3.50953 11.0372 3.50953 17.1466 7.27336 20.9104C10.1508 23.7878 14.5692 24.5515 18.2376 22.7923L19.4649 22.1923L27.7289 30.4564L22.2741 35.9112ZM10.0008 18.183C7.75066 15.9329 7.75066 12.2509 10.0008 10.0008C12.2509 7.75065 15.9329 7.75065 18.183 10.0008C20.4331 12.2509 20.4331 15.9329 18.183 18.183C15.9329 20.4331 12.2509 20.4331 10.0008 18.183ZM15.4556 12.7282C14.7056 11.9781 13.4782 11.9781 12.7282 12.7282C11.9781 13.4782 11.9781 14.7056 12.7282 15.4556C13.4782 16.2056 14.7056 16.2056 15.4556 15.4556C16.2056 14.7056 16.2056 13.4782 15.4556 12.7282Z" fill="#F5F5F5"/>
</svg>
