<?xml version="1.0" encoding="utf-8"?>
<!-- Generator: Adobe Illustrator 16.0.3, SVG Export Plug-In . SVG Version: 6.00 Build 0)  -->
<!DOCTYPE svg PUBLIC "-//W3C//DTD SVG 1.1//EN" "http://www.w3.org/Graphics/SVG/1.1/DTD/svg11.dtd">
<svg version="1.1" id="Calque_1" xmlns="http://www.w3.org/2000/svg" xmlns:xlink="http://www.w3.org/1999/xlink" x="0px" y="0px"
	 width="20px" height="20px" viewBox="0 0 20 20" enable-background="new 0 0 20 20" xml:space="preserve">
<path d="M3.868,13.973c0.058-0.078,0.133-0.14,0.22-0.185c0.087-0.043,0.183-0.065,0.279-0.065h3.119
	c0.166,0,0.324,0.065,0.441,0.183c0.117,0.117,0.183,0.275,0.183,0.441c0,0.165-0.066,0.324-0.183,0.441
	c-0.117,0.116-0.275,0.183-0.441,0.183H4.678l-2.807,3.742h16.217l-2.807-3.742h-2.807c-0.165,0-0.325-0.066-0.441-0.183
	c-0.117-0.117-0.183-0.276-0.183-0.441c0-0.166,0.065-0.324,0.183-0.441c0.116-0.117,0.276-0.183,0.441-0.183h3.119
	c0.097,0,0.191,0.022,0.278,0.065c0.087,0.045,0.163,0.106,0.221,0.185l3.742,4.99c0.069,0.091,0.112,0.202,0.122,0.317
	c0.01,0.116-0.012,0.231-0.063,0.335c-0.053,0.104-0.132,0.191-0.231,0.252c-0.098,0.061-0.212,0.094-0.327,0.094H0.624
	c-0.116,0-0.229-0.033-0.328-0.094s-0.178-0.147-0.229-0.252c-0.052-0.104-0.074-0.219-0.064-0.335
	c0.01-0.115,0.053-0.227,0.123-0.317L3.868,13.973z"/>
<path d="M9.98,1.248c-0.491,0-0.978,0.097-1.433,0.285C8.094,1.721,7.681,1.996,7.334,2.343c-0.348,0.348-0.623,0.76-0.812,1.214
	C6.334,4.012,6.238,4.499,6.238,4.99c0,0.491,0.097,0.978,0.285,1.432c0.188,0.454,0.464,0.867,0.812,1.214
	c0.347,0.347,0.76,0.623,1.214,0.812C9.002,8.635,9.489,8.732,9.98,8.732c0.993,0,1.944-0.394,2.646-1.096
	c0.702-0.702,1.096-1.654,1.096-2.646c0-0.993-0.394-1.945-1.096-2.647S10.973,1.248,9.98,1.248z M4.99,4.99
	c0-0.96,0.277-1.9,0.798-2.707C6.31,1.476,7.052,0.837,7.927,0.442c0.875-0.395,1.847-0.529,2.795-0.386
	c0.95,0.143,1.838,0.557,2.559,1.192c0.72,0.636,1.241,1.465,1.502,2.389c0.261,0.925,0.249,1.905-0.034,2.822
	c-0.282,0.918-0.823,1.734-1.559,2.352s-1.633,1.011-2.586,1.13v6.9c0,0.165-0.065,0.324-0.183,0.441
	c-0.117,0.116-0.276,0.183-0.441,0.183c-0.166,0-0.324-0.066-0.441-0.183c-0.117-0.117-0.183-0.276-0.183-0.441V9.942
	C8.15,9.791,7.041,9.203,6.237,8.292C5.433,7.379,4.99,6.206,4.99,4.99z"/>
</svg>
