<svg width="26" height="25" viewBox="0 0 26 25" fill="none" xmlns="http://www.w3.org/2000/svg">
<path d="M23.5334 14.2857H14.4821V23.2143C14.4821 24.1964 13.6675 25 12.6718 25C11.6762 25 10.8616 24.1964 10.8616 23.2143V14.2857H1.81026C0.814617 14.2857 0 13.4821 0 12.5C0 11.5179 0.814617 10.7143 1.81026 10.7143H10.8616V1.78571C10.8616 0.803571 11.6762 0 12.6718 0C13.6675 0 14.4821 0.803571 14.4821 1.78571V10.7143H23.5334C24.529 10.7143 25.3436 11.5179 25.3436 12.5C25.3436 13.4821 24.529 14.2857 23.5334 14.2857Z" fill="black"/>
</svg>
