<svg width="30" height="30" viewBox="0 0 30 30" fill="none" xmlns="http://www.w3.org/2000/svg">
<path d="M23.9386 16.175C23.9881 15.8 24.0128 15.4125 24.0128 15C24.0128 14.6 23.9881 14.2 23.9262 13.825L26.4382 11.85C26.661 11.675 26.7228 11.3375 26.5867 11.0875L24.2108 6.9375C24.0623 6.6625 23.7529 6.575 23.4807 6.6625L20.5232 7.8625C19.9045 7.3875 19.2486 6.9875 18.5185 6.6875L18.073 3.5125C18.0235 3.2125 17.776 3 17.4791 3H12.7272C12.4302 3 12.1951 3.2125 12.1456 3.5125L11.7001 6.6875C10.97 6.9875 10.3018 7.4 9.69546 7.8625L6.73795 6.6625C6.46571 6.5625 6.15634 6.6625 6.00785 6.9375L3.64431 11.0875C3.49582 11.35 3.54532 11.675 3.79281 11.85L6.30484 13.825C6.24297 14.2 6.19347 14.6125 6.19347 15C6.19347 15.3875 6.21822 15.8 6.28009 16.175L3.76806 18.15C3.54532 18.325 3.48344 18.6625 3.61956 18.9125L5.99548 23.0625C6.14397 23.3375 6.45333 23.425 6.72557 23.3375L9.68309 22.1375C10.3018 22.6125 10.9577 23.0125 11.6878 23.3125L12.1333 26.4875C12.1951 26.7875 12.4302 27 12.7272 27H17.4791C17.776 27 18.0235 26.7875 18.0607 26.4875L18.5061 23.3125C19.2362 23.0125 19.9045 22.6125 20.5108 22.1375L23.4683 23.3375C23.7406 23.4375 24.0499 23.3375 24.1984 23.0625L26.5743 18.9125C26.7228 18.6375 26.661 18.325 26.4258 18.15L23.9386 16.175ZM15.1031 19.5C12.653 19.5 10.6483 17.475 10.6483 15C10.6483 12.525 12.653 10.5 15.1031 10.5C17.5533 10.5 19.558 12.525 19.558 15C19.558 17.475 17.5533 19.5 15.1031 19.5Z" fill="black"/>
</svg>
